<svg width="24" height="24" viewBox="0 0 24 24" fill="none" xmlns="http://www.w3.org/2000/svg">
<path d="M4.22399 2.0321L12 9.8081L19.744 2.0641C19.8797 1.91965 20.0432 1.80409 20.2247 1.72436C20.4061 1.64463 20.6018 1.60236 20.8 1.6001C21.2243 1.6001 21.6313 1.76867 21.9314 2.06873C22.2314 2.36878 22.4 2.77575 22.4 3.2001C22.4037 3.39626 22.3673 3.59112 22.293 3.77271C22.2188 3.9543 22.1081 4.11879 21.968 4.2561L14.144 12.0001L21.968 19.8241C22.2317 20.0821 22.3863 20.4314 22.4 20.8001C22.4 21.2244 22.2314 21.6314 21.9314 21.9315C21.6313 22.2315 21.2243 22.4001 20.8 22.4001C20.5961 22.4086 20.3926 22.3745 20.2026 22.3002C20.0125 22.2258 19.84 22.1127 19.696 21.9681L12 14.1921L4.23999 21.9521C4.1048 22.0917 3.9433 22.2032 3.7648 22.2801C3.5863 22.357 3.39434 22.3978 3.19999 22.4001C2.77565 22.4001 2.36868 22.2315 2.06862 21.9315C1.76856 21.6314 1.59999 21.2244 1.59999 20.8001C1.59626 20.6039 1.63266 20.4091 1.70694 20.2275C1.78123 20.0459 1.89184 19.8814 2.03199 19.7441L9.85599 12.0001L2.03199 4.1761C1.76829 3.91811 1.61366 3.56876 1.59999 3.2001C1.59999 2.77575 1.76856 2.36878 2.06862 2.06873C2.36868 1.76867 2.77565 1.6001 3.19999 1.6001C3.58399 1.6049 3.95199 1.7601 4.22399 2.0321Z" fill="#878787" fill-opacity="0.56"/>
</svg>
