<svg width="130" height="130" viewBox="0 0 130 130" fill="none" xmlns="http://www.w3.org/2000/svg">
<path d="M122.138 27.513L39.7882 48.79H125.471C126.672 48.79 127.824 49.2178 128.674 49.9793C129.523 50.7408 130 51.7736 130 52.8505V109.698C130 115.082 127.614 120.246 123.368 124.054C119.121 127.861 113.362 130 107.356 130H25.8398C19.8375 129.996 14.0827 127.855 9.84009 124.048C5.59752 120.241 3.21436 115.079 3.21436 109.698V53.4271L0.886603 46.1751C0.0625323 43.6129 -0.190528 40.9303 0.141878 38.2804C0.474284 35.6305 1.38564 33.0653 2.8239 30.7312C4.26216 28.3972 6.19915 26.3401 8.52424 24.6773C10.8493 23.0146 13.517 21.7788 16.3748 21.0406L94.6942 0.794939C97.5518 0.0560658 100.544 -0.170829 103.499 0.12721C106.455 0.42525 109.316 1.24239 111.919 2.53195C114.522 3.82151 116.816 5.55824 118.671 7.64294C120.525 9.72764 121.904 12.1195 122.727 14.6818L125.236 22.478C125.402 22.991 125.454 23.5283 125.388 24.0592C125.322 24.5901 125.14 25.1041 124.852 25.5718C124.564 26.0396 124.177 26.4518 123.711 26.7849C123.245 27.118 122.711 27.3654 122.138 27.513ZM10.8226 47.8155L16.3204 46.3943L29.3812 26.1325L18.8746 28.853C15.4157 29.7477 12.4943 31.8367 10.7519 34.6613C9.00953 37.4858 8.58865 40.8149 9.58172 43.9174L10.8316 47.8155H10.8226ZM28.8649 43.1541L48.0667 38.184L61.1365 17.9059L41.8895 22.8841C41.832 23.0003 41.7685 23.1141 41.6993 23.2251L28.874 43.1622L28.8649 43.1541ZM79.831 29.9818L92.8918 9.69555L73.6357 14.6737C73.5664 14.8211 73.4878 14.9648 73.4002 15.1041L60.6384 34.9519L79.8401 29.9899L79.831 29.9818ZM104.141 8.44492C104.085 8.5444 104.024 8.64192 103.96 8.73728L92.3755 26.7334L115.264 20.8213L114.005 16.9232C113.342 14.8538 112.079 12.979 110.344 11.4896C108.61 10.0003 106.467 8.94973 104.132 8.44492H104.141Z" fill="#656565"/>
</svg>
