<svg width="139" height="65" viewBox="0 0 139 65" fill="none" xmlns="http://www.w3.org/2000/svg">
<path d="M39.915 11.598C39.1731 10.1691 38.1427 9.09752 36.8237 8.38311C35.5048 7.64121 33.9798 7.27027 32.2487 7.27027C30.3528 7.27027 28.6629 7.69617 27.1792 8.54797C25.6954 9.39977 24.5276 10.6088 23.6758 12.175C22.8515 13.7412 22.4393 15.5547 22.4393 17.6155C22.4393 19.6764 22.8515 21.5036 23.6758 23.0973C24.5276 24.6635 25.6954 25.8725 27.1792 26.7243C28.6629 27.5761 30.3528 28.002 32.2487 28.002C34.8042 28.002 36.8787 27.2876 38.4724 25.8588C40.0661 24.43 41.0415 22.4928 41.3987 20.0473H30.6413V16.2966H46.4271V19.9649C46.1249 22.1905 45.328 24.2376 44.0366 26.1061C42.7726 27.9745 41.1102 29.4721 39.0494 30.5986C37.0161 31.6977 34.7492 32.2473 32.2487 32.2473C29.556 32.2473 27.0967 31.6291 24.871 30.3926C22.6454 29.1286 20.8731 27.3838 19.5542 25.1581C18.2627 22.9324 17.617 20.4182 17.617 17.6155C17.617 14.8128 18.2627 12.2986 19.5542 10.073C20.8731 7.8473 22.6454 6.11621 24.871 4.87973C27.1242 3.61576 29.5834 2.98378 32.2487 2.98378C35.2987 2.98378 38.0053 3.73941 40.3683 5.25067C42.7589 6.73446 44.49 8.85022 45.5616 11.598H39.915ZM60.335 8.91892C62.0661 8.91892 63.6048 9.28986 64.9512 10.0318C66.3251 10.7736 67.3967 11.8727 68.1661 13.3291C68.963 14.7854 69.3614 16.5439 69.3614 18.6047V32H64.7039V19.3054C64.7039 17.2721 64.1956 15.7196 63.1789 14.648C62.1623 13.5489 60.7747 12.9993 59.0161 12.9993C57.2575 12.9993 55.8562 13.5489 54.8121 14.648C53.7954 15.7196 53.2871 17.2721 53.2871 19.3054V32H48.5884V1.5H53.2871V11.9277C54.0839 10.966 55.0868 10.2241 56.2958 9.70203C57.5323 9.17995 58.8787 8.91892 60.335 8.91892ZM75.2724 6.28108C74.4206 6.28108 73.7061 5.99257 73.1291 5.41554C72.5521 4.83851 72.2636 4.1241 72.2636 3.2723C72.2636 2.42049 72.5521 1.70608 73.1291 1.12905C73.7061 0.552025 74.4206 0.263511 75.2724 0.263511C76.0967 0.263511 76.7974 0.552025 77.3744 1.12905C77.9514 1.70608 78.2399 2.42049 78.2399 3.2723C78.2399 4.1241 77.9514 4.83851 77.3744 5.41554C76.7974 5.99257 76.0967 6.28108 75.2724 6.28108ZM77.5805 9.28986V32H72.8818V9.28986H77.5805ZM85.9751 12.6696C86.7719 11.5705 87.8573 10.6775 89.2311 9.99054C90.6325 9.27613 92.185 8.91892 93.8886 8.91892C95.8944 8.91892 97.7079 9.39977 99.3291 10.3615C100.95 11.3232 102.228 12.6971 103.162 14.4831C104.096 16.2417 104.564 18.2613 104.564 20.5419C104.564 22.8225 104.096 24.8696 103.162 26.6831C102.228 28.4691 100.937 29.8705 99.2879 30.8872C97.6667 31.8764 95.8669 32.3709 93.8886 32.3709C92.13 32.3709 90.5638 32.0275 89.1899 31.3405C87.8435 30.6536 86.7719 29.7743 85.9751 28.7027V32H81.2764V1.5H85.9751V12.6696ZM99.7825 20.5419C99.7825 18.9757 99.4528 17.6293 98.7933 16.5027C98.1613 15.3486 97.3095 14.4831 96.2379 13.9061C95.1937 13.3016 94.0672 12.9993 92.8582 12.9993C91.6766 12.9993 90.5501 13.3016 89.4784 13.9061C88.4343 14.5106 87.5825 15.3899 86.923 16.5439C86.291 17.698 85.9751 19.0581 85.9751 20.6243C85.9751 22.1905 86.291 23.5644 86.923 24.7459C87.5825 25.9 88.4343 26.7793 89.4784 27.3838C90.5501 27.9883 91.6766 28.2905 92.8582 28.2905C94.0672 28.2905 95.1937 27.9883 96.2379 27.3838C97.3095 26.7518 98.1613 25.845 98.7933 24.6635C99.4528 23.482 99.7825 22.1081 99.7825 20.5419ZM111.436 1.5V32H106.737V1.5H111.436ZM117.522 6.28108C116.67 6.28108 115.956 5.99257 115.379 5.41554C114.802 4.83851 114.513 4.1241 114.513 3.2723C114.513 2.42049 114.802 1.70608 115.379 1.12905C115.956 0.552025 116.67 0.263511 117.522 0.263511C118.347 0.263511 119.047 0.552025 119.624 1.12905C120.201 1.70608 120.49 2.42049 120.49 3.2723C120.49 4.1241 120.201 4.83851 119.624 5.41554C119.047 5.99257 118.347 6.28108 117.522 6.28108ZM119.83 9.28986V32H115.132V9.28986H119.83ZM20.6119 35.3547V39.1878H12.9869V64H8.28828V39.1878H0.622066V35.3547H20.6119ZM27.5961 44.5872C28.2831 43.4331 29.1898 42.5401 30.3164 41.9081C31.4705 41.2486 32.8306 40.9189 34.3968 40.9189V45.7824H33.2016C31.3606 45.7824 29.9592 46.2495 28.9975 47.1838C28.0633 48.118 27.5961 49.7392 27.5961 52.0473V64H22.8975V41.2899H27.5961V44.5872ZM34.6766 52.5419C34.6766 50.2613 35.1438 48.2417 36.078 46.4831C37.0397 44.7245 38.3311 43.3644 39.9523 42.4027C41.601 41.4135 43.4145 40.9189 45.3929 40.9189C47.1789 40.9189 48.7314 41.2761 50.0503 41.9905C51.3967 42.6775 52.4683 43.543 53.2652 44.5872V41.2899H58.005V64H53.2652V60.6203C52.4683 61.6919 51.3829 62.5849 50.0091 63.2993C48.6352 64.0137 47.069 64.3709 45.3104 64.3709C43.3595 64.3709 41.5735 63.8764 39.9523 62.8872C38.3311 61.8705 37.0397 60.4691 36.078 58.6831C35.1438 56.8696 34.6766 54.8225 34.6766 52.5419ZM53.2652 52.6243C53.2652 51.0581 52.9354 49.698 52.276 48.5439C51.644 47.3899 50.8059 46.5106 49.7618 45.9061C48.7176 45.3016 47.5911 44.9993 46.382 44.9993C45.173 44.9993 44.0465 45.3016 43.0023 45.9061C41.9582 46.4831 41.1064 47.3486 40.4469 48.5027C39.8149 49.6293 39.4989 50.9757 39.4989 52.5419C39.4989 54.1081 39.8149 55.482 40.4469 56.6635C41.1064 57.845 41.9582 58.7518 43.0023 59.3838C44.0739 59.9883 45.2005 60.2905 46.382 60.2905C47.5911 60.2905 48.7176 59.9883 49.7618 59.3838C50.8059 58.7793 51.644 57.9 52.276 56.7459C52.9354 55.5644 53.2652 54.1905 53.2652 52.6243ZM60.1373 52.6243C60.1373 50.2887 60.6044 48.2417 61.5387 46.4831C62.5004 44.6971 63.8193 43.3232 65.4954 42.3615C67.1716 41.3998 69.095 40.9189 71.2657 40.9189C74.0134 40.9189 76.2803 41.5784 78.0664 42.8973C79.8799 44.1887 81.1026 46.0435 81.7346 48.4615H76.665C76.2529 47.3349 75.5934 46.4556 74.6866 45.8236C73.7799 45.1917 72.6396 44.8757 71.2657 44.8757C69.3423 44.8757 67.8035 45.5626 66.6495 46.9365C65.5229 48.2829 64.9596 50.1788 64.9596 52.6243C64.9596 55.0698 65.5229 56.9795 66.6495 58.3534C67.8035 59.7273 69.3423 60.4142 71.2657 60.4142C73.986 60.4142 75.7857 59.2189 76.665 56.8284H81.7346C81.0752 59.1365 79.8387 60.9775 78.0252 62.3514C76.2116 63.6977 73.9585 64.3709 71.2657 64.3709C69.095 64.3709 67.1716 63.8901 65.4954 62.9284C63.8193 61.9392 62.5004 60.5653 61.5387 58.8068C60.6044 57.0207 60.1373 54.9599 60.1373 52.6243ZM92.9293 52.6655L103.398 64H97.0509L88.6428 54.2318V64H83.9442V33.5H88.6428V51.223L96.8861 41.2899H103.398L92.9293 52.6655ZM125.107 52.0885C125.107 52.9403 125.052 53.7097 124.942 54.3966H107.59C107.728 56.2101 108.401 57.6664 109.61 58.7655C110.819 59.8646 112.303 60.4142 114.061 60.4142C116.589 60.4142 118.375 59.3563 119.419 57.2405H124.489C123.802 59.3288 122.552 61.0462 120.738 62.3926C118.952 63.7115 116.727 64.3709 114.061 64.3709C111.891 64.3709 109.94 63.8901 108.209 62.9284C106.505 61.9392 105.159 60.5653 104.169 58.8068C103.208 57.0207 102.727 54.9599 102.727 52.6243C102.727 50.2887 103.194 48.2417 104.128 46.4831C105.09 44.6971 106.423 43.3232 108.126 42.3615C109.857 41.3998 111.836 40.9189 114.061 40.9189C116.205 40.9189 118.114 41.386 119.79 42.3203C121.467 43.2545 122.772 44.5734 123.706 46.277C124.64 47.9532 125.107 49.8903 125.107 52.0885ZM120.203 50.6047C120.175 48.8736 119.557 47.486 118.348 46.4419C117.139 45.3977 115.641 44.8757 113.855 44.8757C112.234 44.8757 110.846 45.3977 109.692 46.4419C108.538 47.4586 107.851 48.8462 107.632 50.6047H120.203ZM131.957 44.5872C132.644 43.4331 133.551 42.5401 134.677 41.9081C135.831 41.2486 137.191 40.9189 138.758 40.9189V45.7824H137.562C135.721 45.7824 134.32 46.2495 133.358 47.1838C132.424 48.118 131.957 49.7392 131.957 52.0473V64H127.258V41.2899H131.957V44.5872Z" fill="#F4F4F4"/>
</svg>
