<svg width="130" height="130" viewBox="0 0 130 130" fill="none" xmlns="http://www.w3.org/2000/svg">
<path d="M46.4286 111.288C46.4286 121.626 36.0286 130 23.2143 130C10.4 130 0 121.626 0 111.288C0 100.959 10.4 92.5765 23.2143 92.5765C36.0286 92.5765 46.4286 100.959 46.4286 111.288ZM130 92.5765C130 102.915 119.6 111.288 106.786 111.288C93.9714 111.288 83.5714 102.915 83.5714 92.5765C83.5714 82.2382 93.9714 73.8647 106.786 73.8647C119.6 73.8647 130 82.2382 130 92.5765Z" fill="#656565"/>
<path fill-rule="evenodd" clip-rule="evenodd" d="M120.714 92.5764V8.37354H130V92.5764H120.714ZM46.4285 17.7294V111.288H37.1428V17.7294H46.4285Z" fill="#656565"/>
<path d="M37.1428 16.8407C37.1428 14.5213 37.9978 12.2846 39.542 10.5645C41.0862 8.8444 43.2095 7.76353 45.5 7.53159L119.786 0.0468978C121.077 -0.0838565 122.381 0.0595408 123.614 0.467841C124.847 0.876142 125.981 1.54028 126.943 2.41741C127.906 3.29454 128.675 4.3652 129.202 5.56031C129.728 6.75542 130 8.04844 130 9.35599V17.7295L37.1428 27.0854V16.8407Z" fill="#656565"/>
</svg>
