<svg width="130" height="130" viewBox="0 0 130 130" fill="none" xmlns="http://www.w3.org/2000/svg">
<path d="M58.5 39C58.5 44.1717 56.4455 49.1316 52.7886 52.7886C49.1316 56.4455 44.1717 58.5 39 58.5C33.8283 58.5 28.8684 56.4455 25.2114 52.7886C21.5545 49.1316 19.5 44.1717 19.5 39C19.5 33.8283 21.5545 28.8684 25.2114 25.2114C28.8684 21.5545 33.8283 19.5 39 19.5C44.1717 19.5 49.1316 21.5545 52.7886 25.2114C56.4455 28.8684 58.5 33.8283 58.5 39V39ZM110.5 39C110.5 41.5608 109.996 44.0965 109.016 46.4623C108.036 48.8282 106.599 50.9778 104.789 52.7886C102.978 54.5993 100.828 56.0357 98.4623 57.0157C96.0965 57.9956 93.5608 58.5 91 58.5C88.4392 58.5 85.9035 57.9956 83.5377 57.0157C81.1718 56.0357 79.0222 54.5993 77.2114 52.7886C75.4007 50.9778 73.9643 48.8282 72.9843 46.4623C72.0044 44.0965 71.5 41.5608 71.5 39C71.5 33.8283 73.5545 28.8684 77.2114 25.2114C80.8684 21.5545 85.8283 19.5 91 19.5C96.1717 19.5 101.132 21.5545 104.789 25.2114C108.446 28.8684 110.5 33.8283 110.5 39V39ZM84.045 110.5C84.344 108.375 84.5 106.21 84.5 104C84.515 93.7876 81.0793 83.8696 74.75 75.855C79.6906 73.0026 85.2949 71.5009 90.9998 71.5008C96.7047 71.5008 102.309 73.0024 107.25 75.8548C112.19 78.7072 116.293 82.8098 119.146 87.7503C121.998 92.6908 123.5 98.2951 123.5 104V110.5H84.045ZM39 71.5C47.6195 71.5 55.886 74.9241 61.981 81.019C68.0759 87.114 71.5 95.3805 71.5 104V110.5H6.5V104C6.5 95.3805 9.9241 87.114 16.019 81.019C22.114 74.9241 30.3805 71.5 39 71.5V71.5Z" fill="#656565"/>
</svg>
